<svg width="733" height="221" viewBox="0 0 733 221" fill="none" xmlns="http://www.w3.org/2000/svg">
<path d="M18.5333 172.958L16.7083 176.75C16.7083 179.467 20.5208 182.065 28.15 184.542C35.7771 187.021 44.1521 188.258 53.275 188.258C62.4021 188.258 72.4417 186.904 83.3917 184.192C94.3417 181.475 103.863 178.154 111.958 174.225C120.058 170.292 126.752 166.173 132.042 161.867C137.329 157.563 139.975 153.821 139.975 150.642C139.975 146.615 135.294 142.871 125.933 139.408C116.571 135.942 102.977 132.129 85.15 127.967C67.3208 123.8 54.2667 118.538 45.9833 112.175C37.7 105.808 33.5583 98.0646 33.5583 88.9417C33.5583 79.8146 36.8333 71.0875 43.3833 62.7583C49.9333 54.425 58.4708 47.0313 69 40.575C79.5333 34.1146 91.0208 28.3583 103.467 23.3083C129.204 12.9208 153.071 7.72501 175.067 7.72501C183.488 7.72501 190.929 8.47292 197.392 9.96667C209.746 12.8667 215.925 16.7063 215.925 21.4833C215.925 26.2563 215.502 29.5083 214.658 31.2417C213.813 32.9708 213.133 34.1146 212.617 34.675C212.104 35.2375 211.452 35.7979 210.658 36.3583C209.863 36.9208 209.277 37.3417 208.9 37.625C204.783 41.0875 193.504 43.2396 175.067 44.0833C168.704 44.3625 165.242 44.6896 164.675 45.0667C164.113 45.4396 163.621 45.625 163.2 45.625C162.783 45.625 162.294 45.2542 161.733 44.5083C161.171 43.7583 160.892 42.5417 160.892 40.8583C160.892 39.1708 162.717 36.0813 166.367 31.5917C154.944 32.2417 142.752 34.8625 129.792 39.45C116.829 44.0333 105.575 49.2063 96.025 54.9667C86.4792 60.7229 78.525 66.3833 72.1583 71.95C65.7958 77.5167 62.6167 81.4479 62.6167 83.7417C62.6167 86.0375 63.3188 87.9313 64.725 89.425C68.6521 93.6375 79.5542 98.0375 97.4333 102.625C115.967 107.398 128.319 111.238 134.492 114.142C140.669 117.042 145.794 119.804 149.867 122.425C153.938 125.042 157.192 127.708 159.625 130.425C165.335 136.975 168.192 143.621 168.192 150.358C168.192 157.098 166.388 163.415 162.783 169.308C159.183 175.204 153.754 180.913 146.5 186.433C139.244 191.956 130.702 196.871 120.875 201.175C99.3521 210.821 73.7083 215.642 43.9417 215.642C22.2292 215.642 8.37917 209.883 2.39167 198.367C0.795833 195.467 0 192.45 0 189.317C0 186.179 0.725 183.348 2.175 180.825C3.62917 178.298 5.38542 176.379 7.44167 175.067C11.4688 172.54 14.325 171.275 16.0083 171.275C17.6917 171.275 18.5333 171.838 18.5333 172.958Z" fill="#F9F6F4"/>
<path d="M288.226 104.875C295.336 104.875 298.892 107.308 298.892 112.175C298.892 114.792 298.284 116.708 297.067 117.925C295.851 119.142 293.253 123.192 289.276 130.075C285.297 136.954 280.897 145.75 276.076 156.467C271.259 167.183 268.147 176.331 266.742 183.908C266.459 184.848 266.317 186.158 266.317 187.842C266.317 192.988 267.72 195.558 270.526 195.558C273.336 195.558 276.661 194.225 280.501 191.558C284.338 188.892 287.755 186.04 290.751 183C293.745 179.956 296.667 176.846 299.517 173.667C302.372 170.483 304.08 168.658 304.642 168.192C305.209 167.721 306.053 167.483 307.176 167.483C308.953 167.483 310.028 168.842 310.401 171.558C310.778 174.271 310.967 177.079 310.967 179.983C310.967 182.883 310.686 184.896 310.126 186.017C307.409 191.35 301.438 197.763 292.217 205.25C283.001 212.738 274.626 216.483 267.092 216.483C259.559 216.483 254.013 214.192 250.459 209.608C246.903 205.021 245.126 199.942 245.126 194.375C245.126 188.804 246.061 183.913 247.934 179.7C240.161 189.806 231.245 198.371 221.184 205.392C211.122 212.408 202.909 215.917 196.542 215.917C190.18 215.917 184.988 214 180.967 210.167C175.817 205.39 173.242 198.767 173.242 190.3C173.242 181.829 175.136 173.312 178.926 164.75C182.72 156.183 187.703 148.367 193.876 141.3C200.053 134.233 206.838 127.8 214.234 122C229.772 109.833 244.092 103.75 257.192 103.75C262.247 103.75 266.367 104.592 269.551 106.275C272.734 107.958 274.745 110.065 275.584 112.592C277.834 109.225 279.73 107.098 281.276 106.208C282.82 105.321 285.136 104.875 288.226 104.875ZM269.551 120.458C253.545 120.458 236.978 129.348 219.851 147.125C213.767 153.492 208.176 161.123 203.076 170.017C197.976 178.906 195.426 184.99 195.426 188.267C195.426 191.54 196.361 193.175 198.234 193.175C200.851 193.175 208.147 188.006 220.126 177.667C232.109 167.323 240.067 159.717 244.001 154.85C248.305 149.423 256.822 137.958 269.551 120.458Z" fill="#F9F6F4"/>
<path d="M414.569 0.841675C419.062 0.841675 423.019 2.17501 426.435 4.84167C429.852 7.50834 431.56 11.4646 431.56 16.7083C431.56 21.9479 428.656 30.1625 422.852 41.35C417.052 52.5333 410.079 63.95 401.935 75.6C393.796 87.25 384.577 99.6292 374.277 112.733C357.994 133.512 342.364 152.183 327.394 168.75C327.298 169.873 326.898 171.956 326.194 175C325.494 178.04 325.144 181.104 325.144 184.192C325.144 187.281 326.571 190.067 329.427 192.55C332.281 195.029 335.814 196.267 340.027 196.267C344.237 196.267 348.752 194.771 353.569 191.775C358.389 188.781 362.579 185.458 366.135 181.808C375.496 172.165 381.298 167.342 383.544 167.342C385.794 167.342 386.919 170.758 386.919 177.592V180.4C386.919 184.05 386.262 186.717 384.952 188.4C377.089 198.046 368.246 205.231 358.419 209.958C348.589 214.679 339.277 217.042 330.477 217.042C321.681 217.042 314.989 214.352 310.402 208.975C305.819 203.592 303.527 196.221 303.527 186.858C303.527 168.608 308.414 147.154 318.194 122.492C327.977 97.8313 338.998 76.8417 351.26 59.525C378.864 20.4042 399.969 0.841675 414.569 0.841675ZM408.252 24.15C408.252 22.7458 407.785 22.0417 406.852 22.0417C403.573 22.0417 394.962 31.4042 381.019 50.125C367.073 68.8417 356.987 83.7708 350.76 94.9083C344.537 106.042 338.664 120.033 333.144 136.883C344.187 123.779 359.464 103.35 378.977 75.6C398.494 47.85 408.252 30.7 408.252 24.15Z" fill="#F9F6F4"/>
<path d="M489.402 103.467C489.402 109.923 485.796 119.354 478.586 131.758C471.379 144.158 462.138 156.723 450.861 169.45C439.581 182.179 427.627 193.2 414.994 202.517C402.361 211.827 392.486 216.483 385.369 216.483C381.536 216.483 378.027 215.077 374.844 212.267C371.661 209.463 370.069 204.996 370.069 198.867C370.069 192.733 372.969 183.071 378.769 169.875C384.573 156.675 390.286 145.538 395.902 136.458C390.94 140.108 387.921 141.933 386.844 141.933C385.765 141.933 384.406 140.717 382.769 138.283C381.136 135.85 380.319 133.956 380.319 132.6C380.319 131.24 380.552 130.233 381.019 129.583C399.456 109.083 412.465 98.8333 420.044 98.8333C423.227 98.8333 425.894 99.7708 428.044 101.642C430.198 103.515 431.277 105.763 431.277 108.383C431.277 111 428.094 118.533 421.727 130.983C415.365 143.433 409.002 156 402.636 168.683C396.273 181.363 393.094 189.34 393.094 192.617C393.094 193.179 393.373 193.458 393.936 193.458C396.369 193.458 402.944 188.617 413.661 178.933C424.377 169.246 433.056 160.238 439.702 151.908C446.346 143.575 452.171 135.198 457.177 126.775C462.188 118.348 464.694 112.825 464.694 110.208C464.694 107.588 464.154 105.413 463.077 103.683C461.998 101.95 461.461 100.079 461.461 98.0667C461.461 96.05 462.84 93.8042 465.602 91.325C468.363 88.8417 471.896 87.6 476.202 87.6C485.002 87.6 489.402 92.8896 489.402 103.467Z" fill="#F9F6F4"/>
<path d="M573.492 106.558C573.492 112.738 570.986 118.165 565.975 122.842C560.969 127.521 555.286 129.858 548.925 129.858C546.863 129.858 545.505 129.367 544.85 128.383C544.194 127.4 543.867 126.115 543.867 124.525C543.867 122.938 544.055 121.392 544.434 119.892C541.061 121.015 537.317 122.748 533.2 125.092C529.084 127.431 524.028 130.896 518.034 135.483C512.044 140.067 509.05 143.481 509.05 145.725C509.05 146.475 510.15 146.85 512.35 146.85C514.55 146.85 517.942 146.079 522.525 144.533C527.113 142.99 530.319 142.217 532.142 142.217C533.969 142.217 535.163 142.308 535.725 142.492C536.942 143.148 538.253 144.575 539.659 146.775C541.063 148.975 541.767 150.708 541.767 151.975C541.767 153.238 540.55 154.898 538.117 156.958C535.684 159.015 532.921 160.581 529.834 161.658C526.744 162.738 524.684 163.556 523.65 164.117C503.905 175.163 494.034 182.742 494.034 186.858C494.034 194.158 500.255 197.808 512.7 197.808C520.655 197.808 528.659 195.281 536.709 190.225C543.542 185.921 549.694 181.546 555.167 177.1C560.644 172.656 564.109 169.921 565.559 168.892C567.009 167.858 568.109 167.342 568.859 167.342C571.292 167.342 572.509 170.058 572.509 175.492C572.509 180.921 572.18 184.5 571.525 186.233C570.869 187.963 568.996 190.09 565.909 192.617C545.88 208.9 526.928 217.042 509.05 217.042C499.505 217.042 491.878 215.729 486.167 213.108C475.688 208.338 470.45 201.038 470.45 191.208C470.45 178.292 479.386 168.513 497.259 161.867C493.703 160.279 491.409 158.246 490.375 155.767C489.346 153.283 488.834 149.306 488.834 143.833C488.834 138.356 491.384 132.554 496.484 126.425C501.588 120.292 507.838 115.258 515.234 111.325C531.705 102.438 546.396 97.9917 559.309 97.9917C562.396 97.9917 565.534 98.7417 568.717 100.242C571.9 101.738 573.492 103.842 573.492 106.558Z" fill="#F9F6F4"/>
<path d="M718.37 0L729.186 1.40833C731.524 1.40833 732.695 2.15625 732.695 3.65C732.695 3.93333 732.505 4.54167 732.128 5.475C703.116 48.0583 670.828 98.1792 635.261 155.833C633.295 159.113 631.374 161.031 629.503 161.592C629.414 161.592 629.322 161.64 629.228 161.733C629.132 161.823 628.97 161.94 628.736 162.083C628.503 162.223 628.197 162.34 627.82 162.433C626.42 162.996 624.782 163.275 622.911 163.275C621.039 163.275 619.728 163.556 618.978 164.117C618.228 164.679 616.778 164.958 614.628 164.958C611.161 164.958 609.428 163.181 609.428 159.625C609.428 153.354 617.453 137.325 633.503 111.542C649.557 85.7542 665.305 61.7917 680.745 39.6583C696.189 17.525 706.064 4.775 710.37 1.40833C711.586 0.470833 714.253 0 718.37 0ZM580.511 211.917C580.511 205.973 582.991 200.592 587.953 195.775C592.914 190.954 598.13 188.542 603.603 188.542C609.08 188.542 611.82 191.256 611.82 196.683C611.82 202.113 609.314 207.492 604.303 212.825C599.297 218.163 594.08 220.833 588.653 220.833C583.224 220.833 580.511 217.86 580.511 211.917Z" fill="#F9F6F4"/>
</svg>
