<svg width="184" height="56" viewBox="0 0 184 56" fill="none" xmlns="http://www.w3.org/2000/svg">
<path d="M4.63333 43.2396L4.17708 44.1875C4.17708 44.8667 5.13021 45.5161 7.0375 46.1354C8.94427 46.7552 11.038 47.0646 13.3188 47.0646C15.6005 47.0646 18.1104 46.726 20.8479 46.0479C23.5854 45.3687 25.9656 44.5385 27.9896 43.5562C30.0146 42.5729 31.688 41.5432 33.0104 40.4667C34.3323 39.3906 34.9938 38.4552 34.9938 37.6604C34.9938 36.6536 33.8234 35.7177 31.4833 34.8521C29.1427 33.9854 25.7443 33.0323 21.2875 31.9917C16.8302 30.95 13.5667 29.6344 11.4958 28.0437C9.425 26.4521 8.38958 24.5161 8.38958 22.2354C8.38958 19.9536 9.20833 17.7719 10.8458 15.6896C12.4833 13.6062 14.6177 11.7578 17.25 10.1437C19.8833 8.52864 22.7552 7.08958 25.8667 5.82708C32.301 3.2302 38.2677 1.93124 43.7667 1.93124C45.8719 1.93124 47.7323 2.11822 49.3479 2.49166C52.4365 3.21666 53.9813 4.17656 53.9813 5.37083C53.9813 6.56406 53.8755 7.37708 53.6646 7.81041C53.4531 8.2427 53.2833 8.52864 53.1542 8.66874C53.026 8.80937 52.863 8.94947 52.6646 9.08958C52.4656 9.2302 52.3193 9.33541 52.225 9.40624C51.1958 10.2719 48.376 10.8099 43.7667 11.0208C42.176 11.0906 41.3104 11.1724 41.1688 11.2667C41.0281 11.3599 40.9052 11.4062 40.8 11.4062C40.6958 11.4062 40.5734 11.3135 40.4333 11.1271C40.2927 10.9396 40.2229 10.6354 40.2229 10.2146C40.2229 9.7927 40.6792 9.02031 41.5917 7.89791C38.7359 8.06041 35.688 8.71562 32.4479 9.86249C29.2073 11.0083 26.3938 12.3016 24.0063 13.7417C21.6198 15.1807 19.6313 16.5958 18.0396 17.9875C16.449 19.3792 15.6542 20.362 15.6542 20.9354C15.6542 21.5094 15.8297 21.9828 16.1813 22.3562C17.163 23.4094 19.8885 24.5094 24.3583 25.6562C28.9917 26.8495 32.0797 27.8094 33.6229 28.5354C35.1672 29.2604 36.4484 29.951 37.4667 30.6062C38.4844 31.2604 39.2979 31.9271 39.9063 32.6062C41.3339 34.2437 42.0479 35.9052 42.0479 37.5896C42.0479 39.2745 41.5969 40.8536 40.6958 42.3271C39.7958 43.801 38.4385 45.2281 36.625 46.6083C34.8109 47.9891 32.6755 49.2177 30.2188 50.2937C24.838 52.7052 18.4271 53.9104 10.9854 53.9104C5.55729 53.9104 2.09479 52.4708 0.597917 49.5917C0.198958 48.8667 0 48.1125 0 47.3292C0 46.5448 0.18125 45.837 0.54375 45.2062C0.907292 44.5745 1.34635 44.0948 1.86042 43.7667C2.86719 43.1349 3.58125 42.8187 4.00208 42.8187C4.42292 42.8187 4.63333 42.9594 4.63333 43.2396Z" fill="#F9F6F4"/>
<path d="M72.0564 26.2188C73.834 26.2188 74.723 26.8271 74.723 28.0438C74.723 28.6979 74.571 29.1771 74.2668 29.4813C73.9626 29.7854 73.3132 30.7979 72.3189 32.5188C71.3241 34.2385 70.2241 36.4375 69.0189 39.1167C67.8147 41.7958 67.0366 44.0828 66.6855 45.9771C66.6147 46.212 66.5793 46.5396 66.5793 46.9604C66.5793 48.2469 66.9298 48.8896 67.6314 48.8896C68.334 48.8896 69.1652 48.5563 70.1251 47.8896C71.0845 47.2229 71.9387 46.5099 72.6876 45.75C73.4361 44.9891 74.1668 44.2115 74.8793 43.4167C75.5928 42.6208 76.0199 42.1646 76.1605 42.0479C76.3022 41.9302 76.5132 41.8708 76.7939 41.8708C77.2382 41.8708 77.5069 42.2104 77.6001 42.8896C77.6944 43.5677 77.7418 44.2698 77.7418 44.9958C77.7418 45.7208 77.6715 46.224 77.5314 46.5042C76.8522 47.8375 75.3595 49.4406 73.0543 51.3125C70.7501 53.1844 68.6564 54.1208 66.773 54.1208C64.8897 54.1208 63.5033 53.5479 62.6147 52.4021C61.7257 51.2552 61.2814 49.9854 61.2814 48.5938C61.2814 47.201 61.5152 45.9781 61.9835 44.925C60.0402 47.4516 57.8111 49.5927 55.296 51.3479C52.7803 53.1021 50.7272 53.9792 49.1355 53.9792C47.5449 53.9792 46.247 53.5 45.2418 52.5417C43.9543 51.3474 43.3105 49.6917 43.3105 47.575C43.3105 45.4573 43.784 43.3281 44.7314 41.1875C45.6798 39.0458 46.9257 37.0917 48.4689 35.325C50.0132 33.5583 51.7095 31.95 53.5585 30.5C57.4428 27.4583 61.023 25.9375 64.298 25.9375C65.5616 25.9375 66.5918 26.1479 67.3876 26.5688C68.1835 26.9896 68.6861 27.5161 68.896 28.1479C69.4585 27.3063 69.9324 26.7745 70.3189 26.5521C70.7048 26.3302 71.284 26.2188 72.0564 26.2188ZM67.3876 30.1146C63.3861 30.1146 59.2444 32.337 54.9626 36.7813C53.4418 38.3729 52.0439 40.2807 50.7689 42.5042C49.4939 44.7266 48.8564 46.2474 48.8564 47.0667C48.8564 47.8849 49.0902 48.2938 49.5585 48.2938C50.2126 48.2938 52.0366 47.0016 55.0314 44.4167C58.0272 41.8307 60.0168 39.9292 61.0001 38.7125C62.0762 37.3557 64.2053 34.4896 67.3876 30.1146Z" fill="#F9F6F4"/>
<path d="M103.642 0.210419C104.766 0.210419 105.755 0.543752 106.609 1.21042C107.463 1.87709 107.89 2.86615 107.89 4.17709C107.89 5.48698 107.164 7.54063 105.713 10.3375C104.263 13.1333 102.52 15.9875 100.484 18.9C98.449 21.8125 96.1443 24.9073 93.5693 28.1833C89.4985 33.3781 85.5912 38.0458 81.8485 42.1875C81.8245 42.4682 81.7245 42.9891 81.5485 43.75C81.3735 44.5099 81.286 45.276 81.286 46.0479C81.286 46.8203 81.6428 47.5167 82.3568 48.1375C83.0704 48.7573 83.9537 49.0667 85.0068 49.0667C86.0594 49.0667 87.1881 48.6927 88.3923 47.9437C89.5975 47.1953 90.6449 46.3646 91.5339 45.4521C93.874 43.0411 95.3245 41.8354 95.886 41.8354C96.4485 41.8354 96.7298 42.6896 96.7298 44.3979V45.1C96.7298 46.0125 96.5657 46.6792 96.2381 47.1C94.2725 49.5115 92.0615 51.3078 89.6048 52.4896C87.1475 53.6698 84.8193 54.2604 82.6193 54.2604C80.4204 54.2604 78.7475 53.588 77.6006 52.2437C76.4548 50.8979 75.8818 49.0552 75.8818 46.7146C75.8818 42.1521 77.1037 36.7885 79.5485 30.6229C81.9943 24.4578 84.7495 19.2104 87.8152 14.8813C94.7162 5.10104 99.9923 0.210419 103.642 0.210419ZM102.063 6.0375C102.063 5.68646 101.946 5.51042 101.713 5.51042C100.893 5.51042 98.7407 7.85104 95.2548 12.5313C91.7683 17.2104 89.2469 20.9427 87.6902 23.7271C86.1344 26.5104 84.6662 30.0083 83.286 34.2208C86.0469 30.9448 89.8662 25.8375 94.7443 18.9C99.6235 11.9625 102.063 7.675 102.063 6.0375Z" fill="#F9F6F4"/>
<path d="M122.351 25.8667C122.351 27.4807 121.449 29.8385 119.647 32.9396C117.845 36.0396 115.535 39.1807 112.715 42.3625C109.895 45.5448 106.907 48.3 103.749 50.6292C100.59 52.9568 98.1215 54.1208 96.3423 54.1208C95.384 54.1208 94.5069 53.7693 93.7111 53.0667C92.9153 52.3656 92.5173 51.2489 92.5173 49.7167C92.5173 48.1833 93.2423 45.7677 94.6923 42.4687C96.1434 39.1687 97.5715 36.3844 98.9757 34.1146C97.735 35.0271 96.9804 35.4833 96.7111 35.4833C96.4413 35.4833 96.1017 35.1792 95.6923 34.5708C95.284 33.9625 95.0798 33.4891 95.0798 33.15C95.0798 32.8099 95.1382 32.5583 95.2548 32.3958C99.8642 27.2708 103.116 24.7083 105.011 24.7083C105.807 24.7083 106.474 24.9427 107.011 25.4104C107.55 25.8786 107.819 26.4406 107.819 27.0958C107.819 27.75 107.024 29.6333 105.432 32.7458C103.841 35.8583 102.251 39 100.659 42.1708C99.0684 45.3406 98.2736 47.3349 98.2736 48.1542C98.2736 48.2948 98.3434 48.3646 98.484 48.3646C99.0923 48.3646 100.736 47.1542 103.415 44.7333C106.094 42.3114 108.264 40.0594 109.926 37.9771C111.587 35.8937 113.043 33.7995 114.294 31.6937C115.547 29.587 116.174 28.2062 116.174 27.5521C116.174 26.8969 116.039 26.3531 115.769 25.9208C115.5 25.4875 115.365 25.0198 115.365 24.5167C115.365 24.0125 115.71 23.451 116.401 22.8312C117.091 22.2104 117.974 21.9 119.051 21.9C121.251 21.9 122.351 23.2224 122.351 25.8667Z" fill="#F9F6F4"/>
<path d="M143.373 26.6396C143.373 28.1844 142.746 29.5412 141.494 30.7104C140.242 31.8802 138.821 32.4646 137.231 32.4646C136.716 32.4646 136.376 32.3417 136.213 32.0958C136.048 31.85 135.967 31.5287 135.967 31.1313C135.967 30.7344 136.014 30.3479 136.108 29.9729C135.265 30.2537 134.329 30.687 133.3 31.2729C132.271 31.8578 131.007 32.724 129.508 33.8708C128.011 35.0167 127.263 35.8703 127.263 36.4313C127.263 36.6188 127.538 36.7125 128.088 36.7125C128.638 36.7125 129.485 36.5198 130.631 36.1333C131.778 35.7474 132.58 35.5542 133.035 35.5542C133.492 35.5542 133.791 35.5771 133.931 35.6229C134.235 35.787 134.563 36.1438 134.915 36.6938C135.266 37.2438 135.442 37.6771 135.442 37.9938C135.442 38.3094 135.138 38.7245 134.529 39.2396C133.921 39.7537 133.23 40.1453 132.458 40.4146C131.686 40.6844 131.171 40.8891 130.913 41.0292C125.976 43.7906 123.508 45.6854 123.508 46.7146C123.508 48.5396 125.064 49.4521 128.175 49.4521C130.164 49.4521 132.165 48.8203 134.177 47.5563C135.885 46.4802 137.423 45.3865 138.792 44.275C140.161 43.1641 141.027 42.4802 141.39 42.2229C141.752 41.9646 142.027 41.8354 142.215 41.8354C142.823 41.8354 143.127 42.5146 143.127 43.8729C143.127 45.2302 143.045 46.125 142.881 46.5583C142.717 46.9906 142.249 47.5224 141.477 48.1542C136.47 52.225 131.732 54.2604 127.263 54.2604C124.876 54.2604 122.969 53.9323 121.542 53.2771C118.922 52.0844 117.613 50.2594 117.613 47.8021C117.613 44.5729 119.846 42.1281 124.315 40.4667C123.426 40.0698 122.852 39.5615 122.594 38.9417C122.337 38.3208 122.208 37.3266 122.208 35.9583C122.208 34.5891 122.846 33.1385 124.121 31.6063C125.397 30.0729 126.959 28.8146 128.808 27.8313C132.926 25.6094 136.599 24.4979 139.827 24.4979C140.599 24.4979 141.383 24.6854 142.179 25.0604C142.975 25.4344 143.373 25.9604 143.373 26.6396Z" fill="#F9F6F4"/>
<path d="M179.593 0L182.297 0.352083C182.881 0.352083 183.174 0.539063 183.174 0.9125C183.174 0.983333 183.126 1.13542 183.032 1.36875C175.779 12.0146 167.707 24.5448 158.815 38.9583C158.324 39.7781 157.844 40.2578 157.376 40.3979C157.353 40.3979 157.331 40.4099 157.307 40.4333C157.283 40.4557 157.243 40.4849 157.184 40.5208C157.126 40.5557 157.049 40.5849 156.955 40.6083C156.605 40.749 156.196 40.8188 155.728 40.8188C155.26 40.8188 154.932 40.8891 154.745 41.0292C154.557 41.1698 154.195 41.2396 153.657 41.2396C152.79 41.2396 152.357 40.7953 152.357 39.9063C152.357 38.3385 154.363 34.3313 158.376 27.8854C162.389 21.4385 166.326 15.4479 170.186 9.91458C174.047 4.38125 176.516 1.19375 177.593 0.352083C177.897 0.117708 178.563 0 179.593 0ZM145.128 52.9792C145.128 51.4932 145.748 50.1479 146.988 48.9438C148.228 47.7385 149.533 47.1354 150.901 47.1354C152.27 47.1354 152.955 47.8141 152.955 49.1708C152.955 50.5281 152.328 51.8729 151.076 53.2063C149.824 54.5406 148.52 55.2083 147.163 55.2083C145.806 55.2083 145.128 54.4651 145.128 52.9792Z" fill="#F9F6F4"/>
</svg>
