<svg xmlns="http://www.w3.org/2000/svg" xmlns:xlink="http://www.w3.org/1999/xlink" width="300" zoomAndPan="magnify" viewBox="0 0 224.87999 225" height="300" preserveAspectRatio="xMidYMid meet" version="1.0"><defs><g/><clipPath id="8060424ff2"><path d="M 0 0.0585938 L 224.761719 0.0585938 L 224.761719 224.9375 L 0 224.9375 Z M 0 0.0585938 " clip-rule="nonzero"/></clipPath><clipPath id="92974fc65d"><path d="M 36.730469 0.0585938 L 188.148438 0.0585938 C 197.890625 0.0585938 207.234375 3.929688 214.121094 10.816406 C 221.011719 17.707031 224.878906 27.050781 224.878906 36.789062 L 224.878906 188.210938 C 224.878906 197.949219 221.011719 207.292969 214.121094 214.183594 C 207.234375 221.070312 197.890625 224.941406 188.148438 224.941406 L 36.730469 224.941406 C 26.988281 224.941406 17.644531 221.070312 10.757812 214.183594 C 3.871094 207.292969 0 197.949219 0 188.210938 L 0 36.789062 C 0 27.050781 3.871094 17.707031 10.757812 10.816406 C 17.644531 3.929688 26.988281 0.0585938 36.730469 0.0585938 " clip-rule="nonzero"/></clipPath></defs><g clip-path="url(#8060424ff2)"><g clip-path="url(#92974fc65d)"><path fill="#ad3838" d="M 0 0.0585938 L 224.878906 0.0585938 L 224.878906 224.941406 L 0 224.941406 Z M 0 0.0585938 " fill-opacity="1" fill-rule="nonzero"/></g></g><g fill="#ffffff" fill-opacity="0.4"><g transform="translate(24.315303, 181.136474)"><g><path d="M 26.640625 -26.84375 L 25.375 -24.203125 C 25.375 -22.316406 28.023438 -20.507812 33.328125 -18.78125 C 38.628906 -17.0625 44.453125 -16.203125 50.796875 -16.203125 C 57.140625 -16.203125 64.117188 -17.144531 71.734375 -19.03125 C 79.347656 -20.914062 85.96875 -23.222656 91.59375 -25.953125 C 97.226562 -28.691406 101.882812 -31.554688 105.5625 -34.546875 C 109.238281 -37.546875 111.078125 -40.148438 111.078125 -42.359375 C 111.078125 -45.160156 107.820312 -47.765625 101.3125 -50.171875 C 94.800781 -52.578125 85.347656 -55.226562 72.953125 -58.125 C 60.554688 -61.019531 51.476562 -64.675781 45.71875 -69.09375 C 39.96875 -73.519531 37.09375 -78.90625 37.09375 -85.25 C 37.09375 -91.59375 39.367188 -97.660156 43.921875 -103.453125 C 48.472656 -109.242188 54.410156 -114.382812 61.734375 -118.875 C 69.054688 -123.363281 77.039062 -127.367188 85.6875 -130.890625 C 103.582031 -138.109375 120.175781 -141.71875 135.46875 -141.71875 C 141.320312 -141.71875 146.492188 -141.195312 150.984375 -140.15625 C 159.578125 -138.132812 163.875 -135.460938 163.875 -132.140625 C 163.875 -128.828125 163.582031 -126.566406 163 -125.359375 C 162.414062 -124.160156 161.941406 -123.363281 161.578125 -122.96875 C 161.222656 -122.582031 160.769531 -122.191406 160.21875 -121.796875 C 159.664062 -121.410156 159.257812 -121.125 159 -120.9375 C 156.132812 -118.519531 148.289062 -117.019531 135.46875 -116.4375 C 131.039062 -116.238281 128.632812 -116.007812 128.25 -115.75 C 127.863281 -115.488281 127.519531 -115.359375 127.21875 -115.359375 C 126.925781 -115.359375 126.582031 -115.617188 126.1875 -116.140625 C 125.800781 -116.660156 125.609375 -117.503906 125.609375 -118.671875 C 125.609375 -119.847656 126.878906 -122 129.421875 -125.125 C 121.484375 -124.664062 113.007812 -122.84375 104 -119.65625 C 94.988281 -116.46875 87.160156 -112.875 80.515625 -108.875 C 73.878906 -104.875 68.347656 -100.9375 63.921875 -97.0625 C 59.503906 -93.195312 57.296875 -90.460938 57.296875 -88.859375 C 57.296875 -87.265625 57.78125 -85.953125 58.75 -84.921875 C 61.488281 -81.984375 69.070312 -78.921875 81.5 -75.734375 C 94.382812 -72.421875 102.972656 -69.753906 107.265625 -67.734375 C 111.554688 -65.710938 115.117188 -63.789062 117.953125 -61.96875 C 120.785156 -60.15625 123.046875 -58.304688 124.734375 -56.421875 C 128.703125 -51.859375 130.6875 -47.234375 130.6875 -42.546875 C 130.6875 -37.867188 129.429688 -33.476562 126.921875 -29.375 C 124.421875 -25.28125 120.648438 -21.3125 115.609375 -17.46875 C 110.566406 -13.632812 104.628906 -10.21875 97.796875 -7.21875 C 82.828125 -0.519531 65 2.828125 44.3125 2.828125 C 29.21875 2.828125 19.585938 -1.171875 15.421875 -9.171875 C 14.316406 -11.191406 13.765625 -13.289062 13.765625 -15.46875 C 13.765625 -17.644531 14.265625 -19.613281 15.265625 -21.375 C 16.273438 -23.132812 17.5 -24.46875 18.9375 -25.375 C 21.726562 -27.132812 23.707031 -28.015625 24.875 -28.015625 C 26.050781 -28.015625 26.640625 -27.625 26.640625 -26.84375 Z M 26.640625 -26.84375 "/></g></g></g><g fill="#ffffff" fill-opacity="1"><g transform="translate(22.01843, 178.8396)"><g><path d="M 26.640625 -26.84375 L 25.375 -24.203125 C 25.375 -22.316406 28.023438 -20.507812 33.328125 -18.78125 C 38.628906 -17.0625 44.453125 -16.203125 50.796875 -16.203125 C 57.140625 -16.203125 64.117188 -17.144531 71.734375 -19.03125 C 79.347656 -20.914062 85.96875 -23.222656 91.59375 -25.953125 C 97.226562 -28.691406 101.882812 -31.554688 105.5625 -34.546875 C 109.238281 -37.546875 111.078125 -40.148438 111.078125 -42.359375 C 111.078125 -45.160156 107.820312 -47.765625 101.3125 -50.171875 C 94.800781 -52.578125 85.347656 -55.226562 72.953125 -58.125 C 60.554688 -61.019531 51.476562 -64.675781 45.71875 -69.09375 C 39.96875 -73.519531 37.09375 -78.90625 37.09375 -85.25 C 37.09375 -91.59375 39.367188 -97.660156 43.921875 -103.453125 C 48.472656 -109.242188 54.410156 -114.382812 61.734375 -118.875 C 69.054688 -123.363281 77.039062 -127.367188 85.6875 -130.890625 C 103.582031 -138.109375 120.175781 -141.71875 135.46875 -141.71875 C 141.320312 -141.71875 146.492188 -141.195312 150.984375 -140.15625 C 159.578125 -138.132812 163.875 -135.460938 163.875 -132.140625 C 163.875 -128.828125 163.582031 -126.566406 163 -125.359375 C 162.414062 -124.160156 161.941406 -123.363281 161.578125 -122.96875 C 161.222656 -122.582031 160.769531 -122.191406 160.21875 -121.796875 C 159.664062 -121.410156 159.257812 -121.125 159 -120.9375 C 156.132812 -118.519531 148.289062 -117.019531 135.46875 -116.4375 C 131.039062 -116.238281 128.632812 -116.007812 128.25 -115.75 C 127.863281 -115.488281 127.519531 -115.359375 127.21875 -115.359375 C 126.925781 -115.359375 126.582031 -115.617188 126.1875 -116.140625 C 125.800781 -116.660156 125.609375 -117.503906 125.609375 -118.671875 C 125.609375 -119.847656 126.878906 -122 129.421875 -125.125 C 121.484375 -124.664062 113.007812 -122.84375 104 -119.65625 C 94.988281 -116.46875 87.160156 -112.875 80.515625 -108.875 C 73.878906 -104.875 68.347656 -100.9375 63.921875 -97.0625 C 59.503906 -93.195312 57.296875 -90.460938 57.296875 -88.859375 C 57.296875 -87.265625 57.78125 -85.953125 58.75 -84.921875 C 61.488281 -81.984375 69.070312 -78.921875 81.5 -75.734375 C 94.382812 -72.421875 102.972656 -69.753906 107.265625 -67.734375 C 111.554688 -65.710938 115.117188 -63.789062 117.953125 -61.96875 C 120.785156 -60.15625 123.046875 -58.304688 124.734375 -56.421875 C 128.703125 -51.859375 130.6875 -47.234375 130.6875 -42.546875 C 130.6875 -37.867188 129.429688 -33.476562 126.921875 -29.375 C 124.421875 -25.28125 120.648438 -21.3125 115.609375 -17.46875 C 110.566406 -13.632812 104.628906 -10.21875 97.796875 -7.21875 C 82.828125 -0.519531 65 2.828125 44.3125 2.828125 C 29.21875 2.828125 19.585938 -1.171875 15.421875 -9.171875 C 14.316406 -11.191406 13.765625 -13.289062 13.765625 -15.46875 C 13.765625 -17.644531 14.265625 -19.613281 15.265625 -21.375 C 16.273438 -23.132812 17.5 -24.46875 18.9375 -25.375 C 21.726562 -27.132812 23.707031 -28.015625 24.875 -28.015625 C 26.050781 -28.015625 26.640625 -27.625 26.640625 -26.84375 Z M 26.640625 -26.84375 "/></g></g></g></svg>